<svg width="297" height="157" viewBox="0 0 297 157" fill="none" xmlns="http://www.w3.org/2000/svg">
<path d="M290.946 83.5439C288.668 82.9438 286.921 82.3303 285.583 81.7255C280.886 81.6267 277.108 77.7907 277.108 73.0698C277.108 69.287 279.534 66.0732 282.914 64.8933V58.0713C282.914 52.5101 277.971 48.3397 272.255 48.3397C266.23 48.3397 261.596 52.5106 261.596 58.0713V81.7061H257.557C257.149 82.3021 256.725 83.3314 256.34 85.0443C256.381 86.1197 255.866 87.1383 254.916 87.635C253.558 88.3447 251.827 87.7184 251.052 86.2349C250.773 85.7019 250.658 85.1309 250.685 84.5845C250.562 84.0878 250.064 82.7927 248.13 81.7061H242.287C249.645 64.7059 255.859 50.7234 262.808 34.8022C264.164 35.5381 265.886 35.4244 267.145 34.3787C268.062 33.6167 268.537 32.5224 268.546 31.4173C269.46 30.4362 270.968 30.112 272.36 30.6154C272.552 30.9467 272.845 31.2233 273.223 31.3876C274.161 31.7958 275.252 31.3661 275.66 30.428C276.069 29.4899 275.639 28.3986 274.701 27.9905C273.763 27.5823 272.671 28.012 272.263 28.9501C272.224 29.0413 272.194 29.1345 272.17 29.2277C271.135 30.0224 269.593 30.1422 268.265 29.412C268.104 29.3234 267.954 29.2251 267.811 29.1191C267.759 29.0474 267.708 28.9747 267.651 28.9056C267.447 28.6587 267.215 28.4483 266.969 28.2655C266.836 28.1671 266.698 28.078 266.556 27.9987C266.344 27.8804 266.123 27.7856 265.895 27.7098C266.279 26.8275 266.663 25.9411 267.052 25.0429C267.163 24.7879 267.273 24.5339 267.384 24.2773C267.412 24.2133 267.439 24.1503 267.467 24.0863C268.085 22.696 268.085 21.615 268.085 20.6881C268.085 20.1884 268.038 19.6947 267.95 19.2108C268.297 18.6203 268.668 18.3116 268.839 18.1902C269.185 17.9777 269.496 17.6991 269.753 17.354C270.837 15.8966 270.532 13.8365 269.075 12.7534C268.258 12.1461 267.251 11.9755 266.333 12.1988C265.087 12.4421 264.111 12.5465 263.343 12.5568C262.609 12.0626 261.823 11.6514 261.006 11.338C260.879 11.2894 260.752 11.2433 260.624 11.1992C259.583 10.8438 258.501 10.6467 257.427 10.6467C253.41 10.6467 249.394 12.9639 247.85 16.6714L236.433 43.0125C231.43 44.0392 226.268 41.3113 224.378 36.3666C224.132 35.7235 223.611 34.5743 223.141 33.4114C223.028 32.2889 222.709 31.2284 222.227 30.2636L222.226 30.2611C220.729 27.2736 217.641 25.2216 214.072 25.2216C209.148 25.2216 205.138 29.1263 204.963 34.0075C204.956 34.0018 204.948 33.9952 204.94 33.9895C204.923 34.2271 204.897 34.4658 204.86 34.7054C204.268 38.4703 201.42 41.3175 197.911 42.0933C188.882 24.6896 170.702 12.7974 149.742 12.7974C140.259 12.7974 131.347 15.2334 123.592 19.5104C122.575 19.9067 121.468 20.1279 120.309 20.1279C115.328 20.1279 111.291 16.1173 111.291 11.1695C111.291 10.6006 111.349 10.046 111.452 9.50679C111.732 8.74634 111.886 7.92496 111.886 7.06721C111.886 3.17077 108.727 0.0117188 104.83 0.0117188C100.933 0.0117188 97.7748 3.17077 97.7748 7.06721C97.7748 10.8566 100.762 13.9471 104.51 14.1145C104.504 14.1273 104.496 14.1401 104.489 14.1529C104.72 14.1345 104.952 14.1227 105.187 14.1227C110.003 14.1227 113.908 18.0268 113.908 22.843C113.908 24.6143 113.378 26.2617 112.47 27.6376C102.851 36.742 96.5673 49.3311 95.6348 63.3847C94.4058 65.1355 92.0605 65.7736 90.1069 64.7878C89.8534 64.6598 89.6188 64.5087 89.4027 64.3408C89.137 64.0596 88.822 63.8159 88.4569 63.6315C86.9529 62.8726 85.1581 63.3279 84.1779 64.6265C84.1631 64.6081 84.1493 64.5891 84.1339 64.5707C84.0873 64.6895 84.0361 64.8078 83.9777 64.924C83.9603 64.9527 83.9439 64.9829 83.9275 65.0126C82.7129 67.2929 79.6347 68.0821 76.8823 66.8551V54.4919C76.8823 48.9306 71.9391 44.7602 66.2237 44.7602C64.8831 44.7602 63.6121 44.9676 62.4445 45.3501C58.6771 44.1288 55.5851 41.3743 53.8988 37.8035C56.322 32.273 58.8051 26.5838 61.4352 20.5079C62.0533 19.1176 62.0533 18.0366 62.0533 17.1097C62.0533 15.3184 61.4572 13.6137 60.473 12.1322C61.2427 12.0739 61.8495 11.4327 61.8495 10.6482C61.8495 9.8253 61.1822 9.15857 60.3598 9.15857C59.6654 9.15857 59.0842 9.63378 58.9188 10.2764C56.8869 8.31926 54.1211 7.06926 51.3953 7.06926C47.379 7.06926 43.3627 9.38644 41.8177 13.0939L36.5463 25.2559C34.5799 26.0174 33.1973 25.7347 32.7246 25.5908C32.1603 25.3717 31.5458 25.2503 30.9016 25.2549C28.2132 25.2739 26.0496 27.4287 26.068 30.0665C26.0783 31.5505 26.7773 32.8722 27.8655 33.7407C29.3915 35.0874 30.4341 36.2048 31.1336 37.1358C33.798 37.6812 35.8018 40.0388 35.8018 42.8645C35.8018 46.0942 33.1835 48.712 29.9543 48.712C28.7857 48.712 27.698 48.3678 26.7844 47.7774L16.0783 72.4798C15.3399 72.6145 14.8257 72.4978 14.6158 72.4307C14.2793 72.2945 13.9122 72.2182 13.5271 72.2182C11.9181 72.2182 10.6138 73.5224 10.6138 75.1314C10.6138 76.0317 11.023 76.8366 11.6646 77.3708C12.3436 77.9893 12.8598 78.5276 13.2531 78.9997L12.1588 81.5248C11.2319 83.5332 10.6138 86.3133 10.6138 86.9314C10.6138 89.6377 11.6774 92.1961 13.5143 94.1108C12.9776 96.8561 10.7152 99.0442 7.80555 99.3412C7.39485 99.3832 6.99031 99.3817 6.59344 99.3474C6.02503 99.2014 5.42128 99.1517 4.80268 99.2147C1.99235 99.5015 -0.0529128 102.012 0.233855 104.823C0.520623 107.633 3.03138 109.678 5.8417 109.391C8.57521 109.112 10.5841 106.73 10.4285 104.015C10.4382 104.019 10.4479 104.023 10.4576 104.027C10.4274 103.862 10.4018 103.695 10.3844 103.526C10.0295 100.053 12.5577 96.9493 16.0312 96.5949C16.407 96.5565 16.7778 96.5539 17.1419 96.5806C17.9003 96.8929 18.713 97.1239 19.5702 97.2673C19.69 97.3292 19.8093 97.3927 19.9246 97.4619C19.9271 97.4158 19.9281 97.3692 19.9302 97.3226C20.4643 97.3953 21.0143 97.4352 21.5806 97.4352H55.5652V110.102C55.5652 115.663 60.1996 119.833 66.2237 119.833C72.2484 119.833 76.8823 115.663 76.8823 110.102V97.4352H78.8907C81.3901 97.4352 83.6356 96.6492 85.3921 95.3311C85.6676 96.4106 86.639 97.2135 87.8055 97.2238C89.1948 97.2355 90.3306 96.1187 90.3424 94.7294C90.3537 93.4256 89.371 92.3451 88.1015 92.2069C88.8307 90.8626 89.2399 89.3325 89.2399 87.7031C89.2399 86.8418 89.1093 85.9989 88.8681 85.1913C90.3588 84.7827 91.9161 84.5655 93.5184 84.5655C95.3066 84.5655 97.0374 84.838 98.6828 85.3429C103.498 98.7682 113.456 109.744 126.184 115.891C125.397 120.512 122.26 124.592 117.576 126.34C116.775 126.639 115.965 126.853 115.152 126.993C113.918 126.995 112.664 127.212 111.44 127.67C111.187 127.764 110.942 127.87 110.7 127.982C108.23 127.474 106.382 125.29 106.405 122.69C106.408 122.339 106.448 121.998 106.515 121.668C106.681 121.222 106.777 120.742 106.781 120.239C106.801 117.908 104.929 116.003 102.598 115.983C100.268 115.963 98.3622 117.836 98.3422 120.166C98.3228 122.433 100.095 124.293 102.337 124.411C102.332 124.421 102.327 124.43 102.322 124.439C102.459 124.429 102.599 124.424 102.739 124.425C105.619 124.449 107.935 126.804 107.91 129.684C107.909 129.742 107.903 129.797 107.901 129.854C104.83 132.711 103.609 137.242 105.167 141.417C107.23 146.945 113.385 149.754 118.914 147.691C124.29 145.684 127.093 139.808 125.345 134.402C125.368 134.404 125.389 134.408 125.411 134.411C125.263 134.094 125.123 133.771 124.998 133.437C122.775 127.481 125.128 120.938 130.295 117.667C136.332 119.987 142.888 121.262 149.742 121.262C158.31 121.262 166.413 119.272 173.617 115.734C177.231 115.121 179.064 116.422 179.552 116.85C179.596 116.895 179.643 116.937 179.689 116.98C179.925 117.203 180.187 117.402 180.47 117.579C181.247 122.511 175.001 122.994 169.767 123.874C158.805 125.716 150.83 120.631 143.166 129.269C139.864 132.991 135.024 146.482 138.803 151.265C144.723 158.757 154.133 151.702 160.884 149.401C171.964 145.624 180.165 145.209 191.578 148.542C200.727 151.214 218.245 161.52 227.021 152.889C233.699 146.32 227.167 142.003 225.883 134.652C223.962 123.666 228.65 121.618 215.663 120.659C204.251 119.817 193.167 120.991 187.707 112.403C187.618 112.061 187.492 111.73 187.33 111.415C186.612 109.824 186.145 108.53 185.866 107.476C195.928 98.4835 202.614 85.7935 203.787 71.5391C209.472 72.5945 214.6 76.2401 217.32 81.8407C217.761 82.7487 218.12 83.675 218.405 84.6111L218.192 85.1037C217.264 87.1121 216.647 89.8922 216.647 90.5103C216.647 92.1203 217.025 93.6771 217.715 95.0786C216.92 97.9478 214.243 99.9926 211.163 99.8518C210.751 99.8323 210.35 99.7719 209.962 99.6797C209.422 99.4518 208.832 99.3141 208.211 99.2854C205.389 99.1564 202.997 101.338 202.868 104.16C202.739 106.983 204.922 109.374 207.744 109.504C210.489 109.629 212.826 107.568 213.07 104.859C213.08 104.865 213.088 104.871 213.098 104.876C213.092 104.708 213.091 104.54 213.099 104.37C213.258 100.883 216.216 98.1844 219.703 98.3437C219.906 98.3529 220.104 98.3739 220.301 98.4016C222.182 100.011 224.694 101.014 227.615 101.014H261.599V113.681C261.599 119.242 266.233 123.412 272.258 123.412C273.014 123.412 273.748 123.346 274.454 123.22C277.133 124.051 278.813 126.769 278.268 129.566C278.2 129.921 278.096 130.259 277.965 130.582C277.712 131.004 277.523 131.473 277.424 131.984C276.964 134.347 278.506 136.636 280.869 137.096C283.233 137.556 285.521 136.014 285.981 133.65C286.429 131.352 284.979 129.129 282.725 128.585C282.731 128.577 282.738 128.569 282.745 128.56C282.603 128.544 282.461 128.524 282.319 128.496C279.398 127.928 277.491 125.099 278.06 122.179C278.079 122.078 278.105 121.981 278.13 121.884C281.042 120.187 282.917 117.216 282.917 113.681V104.488C285.298 97.6662 289.137 96.4848 290.21 96.2856C291.023 96.2109 291.836 95.9804 292.604 95.5784C295.764 93.9275 296.986 90.0269 295.334 86.8684C294.403 85.093 292.764 83.9295 290.946 83.5439Z" fill="#00A4FF"/>
</svg>
